<?xml version="1.0" encoding="utf-8"?>
<!-- Generator: Adobe Illustrator 16.0.0, SVG Export Plug-In . SVG Version: 6.00 Build 0)  -->
<!DOCTYPE svg PUBLIC "-//W3C//DTD SVG 1.1//EN" "http://www.w3.org/Graphics/SVG/1.1/DTD/svg11.dtd">
<svg version="1.1" id="Layer_1" xmlns="http://www.w3.org/2000/svg" xmlns:xlink="http://www.w3.org/1999/xlink" x="0px" y="0px"
	 width="841.89px" height="595.28px" viewBox="0 0 841.89 595.28" enable-background="new 0 0 841.89 595.28" xml:space="preserve">
<g>
	<g>
		<path fill="#1F70B4" stroke="#1F70B4" stroke-width="3" stroke-miterlimit="10" d="M351.42,476.966
			c2.773,0,5.337,0.254,7.699,0.763c2.359,0.506,4.394,1.131,6.108,1.871s3.056,1.534,4.032,2.379
			c0.972,0.849,1.46,1.619,1.46,2.318c0,1.459-0.054,3.354-0.162,5.682c-0.105,2.328-0.239,5.139-0.411,8.44l-2.76-0.092
			c0.023-0.299,0.036-0.578,0.049-0.843c0.01-0.265,0.013-0.543,0.013-0.841c-0.021-1.462-0.185-2.853-0.491-4.173
			c-0.306-1.323-0.863-2.59-1.665-3.795c-0.848-1.206-1.858-2.272-3.032-3.202c-1.174-0.936-2.459-1.719-3.854-2.352
			c-1.398-0.635-2.888-1.115-4.476-1.446c-1.585-0.326-3.205-0.491-4.854-0.491c-2.84,0-5.412,0.442-7.729,1.318
			c-2.318,0.879-4.387,2.097-6.206,3.649c-1.819,1.557-3.402,3.396-4.743,5.524c-1.344,2.128-2.457,4.438-3.333,6.936
			c-0.879,2.495-1.537,5.118-1.968,7.87c-0.435,2.75-0.65,5.533-0.65,8.347c0,3.322,0.275,6.452,0.825,9.395
			c0.55,2.939,1.331,5.648,2.349,8.123c1.015,2.477,2.243,4.699,3.682,6.665c1.439,1.971,3.053,3.634,4.839,5.001
			c1.791,1.361,3.726,2.407,5.807,3.124c2.086,0.723,4.281,1.08,6.586,1.08c1.609,0,3.264-0.175,4.967-0.522
			c1.704-0.352,3.433-0.899,5.188-1.652c1.758-0.75,3.531-1.7,5.316-2.859c1.791-1.146,3.572-2.528,5.348-4.138
			c0.172,0.085,0.367,0.19,0.588,0.316c0.224,0.129,0.427,0.27,0.617,0.43c0.195,0.159,0.354,0.331,0.493,0.523
			c0.139,0.188,0.208,0.381,0.208,0.57c0,0.129-0.085,0.309-0.257,0.54c-2.071,2.287-4.165,4.201-6.283,5.746
			c-2.115,1.544-4.24,2.79-6.377,3.743c-2.138,0.954-4.292,1.635-6.46,2.049c-2.168,0.411-4.332,0.616-6.488,0.616
			c-2.857,0-5.581-0.396-8.174-1.189c-2.593-0.792-4.996-1.93-7.221-3.413c-2.22-1.479-4.232-3.271-6.031-5.378
			c-1.796-2.104-3.33-4.469-4.6-7.092c-1.272-2.621-2.251-5.477-2.934-8.555c-0.691-3.078-1.033-6.331-1.033-9.76
			c0-3.299,0.332-6.616,0.997-9.949c0.668-3.333,1.663-6.521,2.986-9.566c1.321-3.051,2.983-5.896,4.982-8.539
			c2-2.647,4.333-4.947,6.997-6.905c2.667-1.955,5.671-3.489,9.015-4.6C343.719,477.518,347.398,476.966,351.42,476.966z"/>
		<path fill="#1F70B4" stroke="#1F70B4" stroke-width="3" stroke-miterlimit="10" d="M393.631,466.428
			c-0.424,3.6-0.84,7.284-1.254,11.062c-0.411,3.777-0.802,7.597-1.174,11.456c-0.367,3.862-0.712,7.739-1.03,11.633
			c-0.316,3.896-0.594,7.727-0.825,11.507c-0.234,3.774-0.414,7.485-0.54,11.124c-0.128,3.639-0.19,7.128-0.19,10.474
			c0,2.094,0.026,3.891,0.08,5.394c0.051,1.503,0.136,2.772,0.254,3.811c0.116,1.033,0.272,1.871,0.473,2.508
			c0.203,0.633,0.453,1.118,0.748,1.457c0.295,0.34,0.645,0.568,1.048,0.684c0.398,0.116,0.876,0.173,1.426,0.173
			c1.018,0,2.112-0.149,3.287-0.458c1.171-0.309,2.364-0.737,3.572-1.285l0.601,1.65c-0.761,0.614-1.719,1.238-2.873,1.87
			c-1.154,0.635-2.364,1.216-3.634,1.748c-1.27,0.529-2.513,0.956-3.729,1.284c-1.218,0.329-2.269,0.491-3.161,0.491
			c-1.141,0-2.045-0.29-2.711-0.871c-0.668-0.583-1.174-1.529-1.524-2.842c-0.349-1.311-0.573-3.022-0.666-5.124
			c-0.095-2.107-0.144-4.672-0.144-7.696c0-1.1,0.031-2.672,0.095-4.715c0.064-2.041,0.154-4.415,0.27-7.129
			c0.116-2.705,0.249-5.666,0.396-8.883s0.306-6.542,0.478-9.98c0.169-3.44,0.347-6.91,0.537-10.412
			c0.193-3.5,0.383-6.887,0.573-10.152c0.19-3.271,0.37-6.355,0.54-9.254c0.169-2.9,0.329-5.46,0.475-7.681
			c0.021-0.509,0.17-0.948,0.447-1.32c0.272-0.365,0.627-0.666,1.061-0.887c0.435-0.224,0.92-0.386,1.46-0.491
			c0.54-0.104,1.084-0.159,1.634-0.159C390.902,465.412,392.236,465.749,393.631,466.428z"/>
		<path fill="#1F70B4" stroke="#1F70B4" stroke-width="3" stroke-miterlimit="10" d="M435.464,541.774
			c0.129,0.066,0.293,0.154,0.493,0.267c0.201,0.119,0.386,0.247,0.556,0.384c0.169,0.136,0.315,0.287,0.444,0.444
			c0.126,0.156,0.19,0.313,0.19,0.46c0,0.085-0.034,0.169-0.096,0.254c-1.185,1.65-2.459,3.087-3.823,4.302
			c-1.367,1.218-2.786,2.23-4.256,3.048c-1.47,0.812-2.965,1.416-4.489,1.809c-1.523,0.389-3.029,0.589-4.507,0.589
			c-2.539,0-4.867-0.52-6.981-1.56c-2.118-1.033-3.934-2.454-5.46-4.253c-1.524-1.796-2.714-3.908-3.569-6.329
			c-0.859-2.423-1.286-5.021-1.286-7.794c0-2.261,0.247-4.525,0.745-6.791c0.498-2.262,1.217-4.423,2.16-6.474
			c0.94-2.05,2.089-3.965,3.443-5.729c1.352-1.769,2.894-3.3,4.615-4.603c1.724-1.303,3.621-2.32,5.682-3.063
			c2.063-0.739,4.281-1.109,6.65-1.109c1.567,0,3.058,0.21,4.476,0.635c1.419,0.424,2.66,1.03,3.731,1.824
			c1.063,0.794,1.917,1.775,2.552,2.937c0.635,1.162,0.953,2.485,0.953,3.968c0,2.156-0.704,4.039-2.109,5.648
			c-1.408,1.608-3.351,2.973-5.825,4.096c-2.478,1.12-5.392,2.025-8.745,2.714c-3.354,0.688-6.977,1.2-10.87,1.539v0.539
			c0,2.706,0.344,5.184,1.03,7.424c0.688,2.243,1.637,4.163,2.842,5.764c1.206,1.596,2.624,2.84,4.253,3.729
			c1.629,0.887,3.384,1.334,5.268,1.334c1.907,0,3.857-0.473,5.856-1.416C431.389,545.418,433.411,543.892,435.464,541.774z
			 M429.5,516.291c0-0.977-0.165-1.886-0.493-2.731c-0.327-0.846-0.784-1.58-1.365-2.205c-0.583-0.624-1.274-1.115-2.078-1.478
			c-0.805-0.359-1.673-0.537-2.604-0.537c-1.375,0-2.624,0.242-3.744,0.728c-1.123,0.488-2.128,1.148-3.017,1.983
			c-0.889,0.838-1.673,1.81-2.349,2.922c-0.678,1.107-1.254,2.287-1.729,3.536c-0.478,1.251-0.86,2.531-1.159,3.844
			c-0.295,1.309-0.509,2.593-0.632,3.842c3.001-0.216,5.694-0.578,8.077-1.097c2.377-0.52,4.389-1.185,6.028-2.002
			c1.64-0.813,2.894-1.789,3.763-2.919C429.063,519.043,429.5,517.748,429.5,516.291z"/>
		<path fill="#1F70B4" stroke="#1F70B4" stroke-width="3" stroke-miterlimit="10" d="M469.869,518.986
			c0-1.67-0.275-3.122-0.825-4.348s-1.27-2.232-2.158-3.014c-0.887-0.784-1.895-1.365-3.015-1.748
			c-1.123-0.38-2.243-0.57-3.363-0.57c-1.504,0-2.772,0.159-3.809,0.476c-1.038,0.318-1.878,0.75-2.525,1.303
			c-0.643,0.55-1.11,1.2-1.398,1.948c-0.282,0.755-0.427,1.564-0.427,2.431c0,1.015,0.188,2.038,0.556,3.063
			c0.372,1.025,0.917,2.028,1.637,2.999l-0.129,0.35c-1.205,0.591-2.42,0.889-3.648,0.889c-0.723,0-1.393-0.112-2.015-0.334
			c-0.627-0.224-1.164-0.544-1.619-0.969c-0.457-0.421-0.814-0.942-1.082-1.552c-0.262-0.616-0.396-1.303-0.396-2.063
			c0-1.249,0.304-2.423,0.904-3.525c0.604-1.098,1.403-2.104,2.397-3.015c0.995-0.912,2.146-1.724,3.459-2.443
			c1.311-0.72,2.665-1.328,4.063-1.824c1.396-0.496,2.799-0.879,4.207-1.144c1.402-0.262,2.711-0.396,3.918-0.396
			c2.224,0,4.119,0.293,5.697,0.889c1.575,0.591,2.857,1.454,3.839,2.585c0.987,1.131,1.704,2.503,2.159,4.109
			c0.457,1.608,0.683,3.43,0.683,5.46c0,1.396-0.059,2.933-0.174,4.603c-0.116,1.67-0.25,3.423-0.398,5.252
			c-0.146,1.83-0.28,3.721-0.396,5.666c-0.115,1.945-0.174,3.883-0.174,5.808c0,3.045,0.564,5.337,1.698,6.871
			c1.133,1.534,2.618,2.3,4.458,2.3c1.629,0,3.451-0.604,5.461-1.809l0.92,1.367c-1.419,1.418-2.966,2.495-4.634,3.234
			c-1.675,0.74-3.428,1.113-5.268,1.113c-1.38,0-2.646-0.234-3.808-0.699c-1.167-0.465-2.172-1.159-3.018-2.079
			c-0.845-0.92-1.503-2.078-1.968-3.477c-0.465-1.396-0.699-3.014-0.699-4.852c0-0.555,0.019-1.103,0.049-1.654
			c0.031-0.55,0.101-1.131,0.206-1.742h-0.19c-0.912,1.816-1.963,3.612-3.161,5.378c-1.194,1.768-2.505,3.341-3.934,4.729
			c-1.426,1.385-2.95,2.508-4.569,3.363c-1.618,0.855-3.317,1.285-5.095,1.285c-1.457,0-2.791-0.252-3.999-0.761
			c-1.205-0.507-2.238-1.205-3.094-2.095c-0.855-0.887-1.523-1.939-1.999-3.16c-0.476-1.213-0.714-2.542-0.714-3.98
			c0-1.86,0.341-3.554,1.032-5.08c0.687-1.524,1.64-2.889,2.855-4.094c1.218-1.205,2.67-2.248,4.365-3.125
			c1.691-0.879,3.533-1.608,5.52-2.188c1.992-0.581,4.097-1.018,6.319-1.304c2.22-0.285,4.486-0.429,6.789-0.429
			c0.148-1.331,0.27-2.621,0.367-3.872C469.822,521.862,469.869,520.49,469.869,518.986z M450.381,540.79
			c0,0.825,0.093,1.614,0.27,2.366c0.18,0.751,0.468,1.411,0.858,1.981c0.394,0.57,0.889,1.021,1.493,1.352
			c0.601,0.327,1.325,0.491,2.174,0.491c0.95,0,1.935-0.224,2.952-0.668c1.016-0.447,2.015-1.057,2.996-1.843
			c0.984-0.781,1.925-1.717,2.827-2.809c0.899-1.087,1.706-2.279,2.426-3.566c0.719-1.293,1.318-2.652,1.796-4.081
			c0.473-1.426,0.784-2.894,0.936-4.396c-1.567,0.044-3.122,0.145-4.667,0.304c-1.544,0.159-3.009,0.408-4.394,0.745
			c-1.388,0.339-2.673,0.783-3.857,1.333s-2.207,1.233-3.063,2.046c-0.856,0.817-1.529,1.78-2.015,2.891
			C450.625,538.046,450.381,539.333,450.381,540.79z"/>
		<path fill="#1F70B4" stroke="#1F70B4" stroke-width="3" stroke-miterlimit="10" d="M494.625,552.438l-0.509-0.031
			c0.169-2.009,0.328-4.198,0.475-6.57c0.149-2.369,0.288-4.777,0.414-7.221s0.239-4.867,0.334-7.27
			c0.096-2.4,0.18-4.644,0.255-6.728c0.074-2.084,0.128-3.952,0.159-5.602c0.03-1.649,0.046-2.95,0.046-3.903
			c0-0.784-0.03-1.46-0.095-2.032c-0.062-0.57-0.206-1.046-0.43-1.427c-0.221-0.383-0.544-0.66-0.966-0.84
			c-0.424-0.183-0.994-0.27-1.717-0.27c-0.356,0-0.727,0.021-1.109,0.062c-0.381,0.043-0.805,0.107-1.268,0.189
			c-0.468,0.088-0.991,0.198-1.575,0.337c-0.58,0.134-1.251,0.298-2.015,0.491l-0.475-2.285c3.513-1.271,6.359-2.163,8.538-2.683
			c2.177-0.519,3.649-0.778,4.41-0.778c1.397,0,2.397,0.406,3.001,1.224c0.602,0.812,0.904,2.024,0.904,3.633
			c0,0.149-0.021,0.581-0.063,1.301c-0.044,0.72-0.101,1.657-0.173,2.806c-0.074,1.154-0.167,2.495-0.272,4.02
			c-0.105,1.521-0.226,3.155-0.364,4.899c-0.139,1.748-0.291,3.567-0.46,5.461c-0.17,1.894-0.35,3.782-0.54,5.669l0.318,0.027
			c1.013-4.146,2.161-8.012,3.443-11.599c1.28-3.587,2.717-6.702,4.317-9.349c1.596-2.645,3.351-4.723,5.268-6.236
			c1.917-1.511,4.014-2.27,6.298-2.27c0.808,0,1.555,0.126,2.257,0.384c0.696,0.251,1.3,0.608,1.809,1.061
			c0.507,0.455,0.91,0.995,1.205,1.622c0.296,0.621,0.444,1.305,0.444,2.043c0,0.953-0.208,1.87-0.619,2.749
			c-0.413,0.876-1.063,1.652-1.952,2.331h-0.252c-0.89-0.74-1.732-1.275-2.523-1.602c-0.794-0.328-1.635-0.493-2.526-0.493
			c-0.95,0-1.87,0.18-2.76,0.54c-0.887,0.359-1.703,0.876-2.443,1.555c-1.205,1.1-2.328,2.557-3.364,4.365
			c-1.038,1.81-1.983,3.811-2.842,6.013c-0.855,2.2-1.629,4.513-2.315,6.936c-0.688,2.421-1.282,4.78-1.777,7.077
			c-0.499,2.295-0.899,4.456-1.206,6.473c-0.308,2.022-0.523,3.721-0.649,5.094L494.625,552.438z"/>
	</g>
	<g>
		<g>
			<path fill="#1F70B4" d="M420.945,454.722L408.937,443.7c-1.57-1.44-38.859-35.783-76.738-81.007
				c-52.604-62.803-79.277-114.27-79.277-152.97c0-92.648,75.375-168.022,168.023-168.022c92.648,0,168.022,75.374,168.022,168.022
				c0,38.7-26.672,90.167-79.276,152.97c-37.877,45.224-75.168,79.566-76.736,81.007L420.945,454.722z M420.945,77.224
				c-73.061,0-132.5,59.439-132.5,132.5c0,56.17,86.733,151.992,132.5,196.439c45.768-44.447,132.5-140.269,132.5-196.439
				C553.445,136.663,494.006,77.224,420.945,77.224z"/>
		</g>
		<g>
			<path fill="#1F70B4" d="M668.247,348.038c-19.238-36.144-64.296-49.896-100.439-30.658
				c-15.098,8.036-29.636,29.129-43.213,62.692c-9.776,24.166-15.431,45.845-15.669,46.757l-1.807,6.975l6.795,2.395
				c0.889,0.314,22.03,7.729,47.538,13.115c35.424,7.481,61.04,7.199,76.138-0.836C673.733,429.238,687.486,384.181,668.247,348.038
				z"/>
			<path fill="#1F70B4" d="M173.642,348.038c19.239-36.144,64.296-49.896,100.439-30.658c15.098,8.036,29.636,29.129,43.214,62.692
				c9.776,24.166,15.431,45.845,15.668,46.757l1.806,6.975l-6.794,2.395c-0.889,0.314-22.031,7.729-47.539,13.115
				c-35.423,7.481-61.04,7.199-76.138-0.836C168.156,429.238,154.403,384.181,173.642,348.038z"/>
		</g>
	</g>
</g>
</svg>
